Coordinates
version=1
nRows=37
nColumns=34
inDegrees=no

Units are S.I. units (second, meters, Newtons, ...)
If the header above contains a line with 'inDegrees', this indicates whether rotational values are in degrees (yes) or radians (no).

endheader
time	pelvis_tilt	pelvis_list	pelvis_rotation	pelvis_tx	pelvis_ty	pelvis_tz	hip_flexion_r	hip_adduction_r	hip_rotation_r	knee_angle_r	ankle_angle_r	subtalar_angle_r	mtp_angle_r	hip_flexion_l	hip_adduction_l	hip_rotation_l	knee_angle_l	ankle_angle_l	subtalar_angle_l	mtp_angle_l	lumbar_extension	lumbar_bending	lumbar_rotation	arm_flex_r	arm_add_r	arm_rot_r	elbow_flex_r	pro_sup_r	arm_flex_l	arm_add_l	arm_rot_l	elbow_flex_l	pro_sup_l
0	0.0771635	-0.0306149	0.0366018	-0.0877596	0.899603	-0.27177	0.353974	-0.0267281	-0.0554228	0.0471631	0.0302618	0.0971816	-0.0158365	-0.402738	-0.074723	-0.173996	0.0686696	0.390507	0.171305	-0.0129109	-0.143169	-0.0803374	-0.144144	-0.139701	-0.271869	-0.0292435	0.650338	1.56098	0.391357	-0.248113	0.139922	0.658489	1.7855
0.01	0.0833308	-0.0510021	0.0439259	-0.0726892	0.907265	-0.269841	0.337466	-0.00464873	-0.0554864	0.0505953	-0.0114715	0.0645166	-0.0158897	-0.41853	-0.104073	-0.192253	0.085845	0.397239	0.188109	-0.0128886	-0.150123	-0.050057	-0.147211	-0.140532	-0.275627	-0.0325663	0.642266	1.55964	0.387768	-0.245191	0.137396	0.658372	1.79274
0.02	0.0886828	-0.0714017	0.0512508	-0.0577668	0.91404	-0.267862	0.323425	0.0174015	-0.0579455	0.0570025	-0.0481684	0.0350915	-0.0159428	-0.429814	-0.134196	-0.207114	0.108752	0.398753	0.199224	-0.0128663	-0.156021	-0.0200767	-0.149848	-0.140954	-0.278808	-0.0356541	0.634988	1.55835	0.383137	-0.242788	0.135921	0.658487	1.79922
0.03	0.0932083	-0.0917926	0.0585613	-0.0429967	0.919968	-0.265835	0.311859	0.0393948	-0.0627303	0.0663639	-0.0797854	0.00885825	-0.015996	-0.436528	-0.165046	-0.218508	0.137425	0.394956	0.204541	-0.0128441	-0.160851	0.00957105	-0.152049	-0.140958	-0.281411	-0.0385082	0.628507	1.5571	0.377474	-0.240904	0.135502	0.658832	1.80494
0.04	0.0968676	-0.112111	0.0658042	-0.0283882	0.925088	-0.263758	0.302802	0.0612387	-0.0696492	0.0786307	-0.106194	-0.014308	-0.0160491	-0.438482	-0.196485	-0.226266	0.171949	0.385586	0.203801	-0.0128218	-0.164571	0.0387877	-0.153793	-0.140523	-0.283436	-0.0411343	0.622835	1.55592	0.370809	-0.239536	0.136153	0.659396	1.80986
0.05	0.0995618	-0.132235	0.072872	-0.0139577	0.929441	-0.261633	0.296321	0.0827592	-0.0783893	0.0937207	-0.127175	-0.0345884	-0.0161023	-0.435338	-0.228255	-0.230157	0.212443	0.370197	0.196649	-0.0127995	-0.167111	0.0674018	-0.155035	-0.139614	-0.284891	-0.0435446	0.617996	1.55482	0.363211	-0.238666	0.137894	0.660153	1.81397
0.06	0.101127	-0.151979	0.0796019	0.000272573	0.933067	-0.259459	0.29249	0.103716	-0.0885534	0.111498	-0.142454	-0.0521641	-0.0161555	-0.426668	-0.259985	-0.229959	0.258984	0.348213	0.18276	-0.0127771	-0.168384	0.0951889	-0.155703	-0.138182	-0.28581	-0.0457436	0.614014	1.55381	0.354785	-0.23826	0.140741	0.661059	1.81727
0.07	0.101374	-0.17113	0.0857815	0.0142785	0.93601	-0.257238	0.291342	0.123835	-0.0997118	0.131738	-0.151785	-0.0671554	-0.0162087	-0.41205	-0.291214	-0.225546	0.311516	0.319063	0.161983	-0.0127548	-0.168312	0.121901	-0.155694	-0.136158	-0.286255	-0.0477091	0.610911	1.55291	0.345673	-0.238256	0.144686	0.662043	1.81981
0.08	0.100143	-0.189478	0.0911654	0.0280381	0.93832	-0.254974	0.292813	0.142861	-0.111446	0.154084	-0.155043	-0.0795896	-0.0162618	-0.391195	-0.321429	-0.216949	0.369746	0.282369	0.134488	-0.0127325	-0.166858	0.147306	-0.154875	-0.133458	-0.286331	-0.0493759	0.60869	1.55214	0.336039	-0.238566	0.14969	0.663014	1.82169
0.09	0.0973402	-0.206852	0.0955023	0.0415334	0.940052	-0.25267	0.296679	0.160603	-0.123375	0.178026	-0.152321	-0.0894098	-0.016315	-0.364065	-0.350117	-0.204395	0.433089	0.238171	0.100884	-0.0127101	-0.164063	0.17122	-0.153089	-0.129989	-0.286177	-0.0506317	0.607335	1.55149	0.326064	-0.239075	0.15568	0.663858	1.82305
0.1	0.0929877	-0.223134	0.0985688	0.0547535	0.941275	-0.250333	0.302527	0.176963	-0.135164	0.202904	-0.143991	-0.0965198	-0.0163682	-0.330953	-0.376805	-0.188291	0.500654	0.187158	0.0622748	-0.0126878	-0.160078	0.193531	-0.150165	-0.125658	-0.285954	-0.0513261	0.606809	1.55092	0.315931	-0.239651	0.162558	0.664439	1.82407
0.11	0.0872353	-0.238253	0.100204	0.067696	0.942068	-0.247975	0.309762	0.191941	-0.146518	0.22795	-0.13071	-0.100848	-0.0164214	-0.292495	-0.401077	-0.169182	0.57129	0.130817	0.020257	-0.0126654	-0.155165	0.214189	-0.14593	-0.120379	-0.285831	-0.0512931	0.607054	1.55038	0.305826	-0.240152	0.170209	0.664609	1.82495
0.12	0.0803573	-0.252173	0.100337	0.0803648	0.942519	-0.245614	0.317652	0.205611	-0.157176	0.252363	-0.113383	-0.102414	-0.0164746	-0.249625	-0.422592	-0.147683	0.643683	0.0714814	-0.0231711	-0.012643	-0.149693	0.233189	-0.140235	-0.11409	-0.285955	-0.0503808	0.608	1.54976	0.29593	-0.240441	0.17852	0.664214	1.82586
0.13	0.0727237	-0.264863	0.0990039	0.09277	0.942723	-0.24327	0.325409	0.218077	-0.166907	0.275393	-0.0930672	-0.101369	-0.0165278	-0.20347	-0.441072	-0.124418	0.716469	0.0121998	-0.0657734	-0.0126206	-0.144099	0.250543	-0.132974	-0.10675	-0.286429	-0.048479	0.609558	1.54893	0.286413	-0.2404	0.187386	0.663102	1.82692
0.14	0.0647547	-0.276275	0.0963509	0.104924	0.942777	-0.24097	0.33227	0.229433	-0.175504	0.296424	-0.0708679	-0.0980112	-0.0165809	-0.15522	-0.456299	-0.0999765	0.788342	-0.0435708	-0.105308	-0.0125981	-0.138836	0.266244	-0.124111	-0.0983474	-0.287297	-0.0455308	0.611629	1.54778	0.27742	-0.239937	0.196701	0.661141	1.82819
0.15	0.0568675	-0.286341	0.0926145	0.116842	0.942774	-0.238742	0.337582	0.23973	-0.182796	0.315021	-0.0478253	-0.0927623	-0.0166341	-0.106005	-0.468108	-0.0748904	0.858141	-0.0924164	-0.139796	-0.0125756	-0.13431	0.280251	-0.113714	-0.0888809	-0.288541	-0.0415151	0.61408	1.5462	0.26905	-0.238999	0.206329	0.658229	1.82967
0.16	0.0494249	-0.294971	0.0880926	0.128545	0.942798	-0.236612	0.34086	0.248967	-0.188656	0.330953	-0.0248285	-0.0861175	-0.0166873	-0.0567949	-0.476397	-0.049645	0.924888	-0.131476	-0.167787	-0.0125531	-0.130818	0.292487	-0.101991	-0.0783346	-0.290084	-0.0363836	0.616727	1.54414	0.261307	-0.237572	0.216046	0.654313	1.83128
0.17	0.0426996	-0.302073	0.0831059	0.140049	0.942915	-0.2346	0.341811	0.257096	-0.193011	0.34416	-0.00256291	-0.0785872	-0.0167405	-0.00834481	-0.481131	-0.0246961	0.987792	-0.158893	-0.188551	-0.0125306	-0.128502	0.302848	-0.0892788	-0.0666784	-0.291812	-0.0300508	0.619332	1.54167	0.254092	-0.235677	0.225525	0.64939	1.83297
0.18	0.0368548	-0.307565	0.0779612	0.151378	0.943177	-0.232718	0.340313	0.264046	-0.195835	0.354714	0.0185055	-0.0706438	-0.0167936	0.0388014	-0.48236	-0.000491267	1.04622	-0.174089	-0.202155	-0.012508	-0.127359	0.311227	-0.0759946	-0.0538898	-0.293578	-0.022426	0.62164	1.53901	0.247221	-0.233355	0.234369	0.643494	1.83469
0.19	0.0319322	-0.311385	0.0729257	0.162554	0.943614	-0.230973	0.336381	0.269745	-0.197148	0.362757	0.0381147	-0.0626818	-0.0168468	0.0842754	-0.480218	0.0225208	1.09965	-0.177792	-0.209401	-0.0124854	-0.127266	0.317535	-0.0625726	-0.0399844	-0.295214	-0.0134727	0.623421	1.53657	0.240461	-0.230658	0.242169	0.636683	1.83643
0.2	0.0278881	-0.31351	0.0682064	0.173603	0.944247	-0.229366	0.330114	0.274138	-0.197	0.368444	0.0561698	-0.0549989	-0.0168999	0.127835	-0.474913	0.0438944	1.14766	-0.171813	-0.211646	-0.0124627	-0.128018	0.321706	-0.0493948	-0.0250453	-0.296538	-0.00327873	0.62453	1.53492	0.233572	-0.227649	0.248578	0.62902	1.83825
0.21	0.024647	-0.313956	0.0639265	0.184553	0.945082	-0.227891	0.321658	0.27719	-0.195462	0.371907	0.0726947	-0.0477877	-0.0169531	0.169321	-0.466719	0.063207	1.18988	-0.158635	-0.210535	-0.0124399	-0.129366	0.323706	-0.0367558	-0.00922709	-0.297366	0.007924	0.624925	1.53475	0.226341	-0.224393	0.253345	0.620568	1.84026
0.22	0.0221114	-0.312771	0.060133	0.19543	0.946116	-0.226536	0.311165	0.278904	-0.192612	0.37323	0.0877821	-0.0411422	-0.0170062	0.208611	-0.455967	0.0800854	1.22601	-0.140924	-0.207707	-0.012417	-0.131061	0.323539	-0.0248412	0.00725158	-0.297527	0.0197608	0.624684	1.53676	0.218603	-0.220966	0.256337	0.6114	1.84259
0.23	0.0201776	-0.310034	0.0568114	0.206261	0.94734	-0.225283	0.298768	0.279325	-0.18854	0.372453	0.101553	-0.0350728	-0.0170593	0.245601	-0.443038	0.0942361	1.25583	-0.121091	-0.204544	-0.0123941	-0.132893	0.321254	-0.0137235	0.0241238	-0.29688	0.0317385	0.624005	1.54149	0.210256	-0.217448	0.257538	0.601594	1.84535
0.24	0.0187454	-0.305863	0.0539046	0.217072	0.948737	-0.224117	0.284584	0.278539	-0.183349	0.369585	0.114126	-0.0295262	-0.0171124	0.280216	-0.428352	0.105471	1.2792	-0.100991	-0.201993	-0.012371	-0.134699	0.316949	-0.00337619	0.0410958	-0.295331	0.0432952	0.623193	1.54917	0.201269	-0.213925	0.257038	0.591251	1.84865
0.25	0.0177185	-0.300414	0.0513339	0.22788	0.950285	-0.223018	0.268731	0.276669	-0.177168	0.364625	0.125609	-0.024402	-0.0171655	0.312421	-0.412361	0.113724	1.29609	-0.0817995	-0.200506	-0.0123479	-0.13636	0.310771	0.0063008	0.05787	-0.292841	0.0538703	0.622625	1.55968	0.191673	-0.210492	0.255001	0.580495	1.85254
0.26	0.0169991	-0.293875	0.0490178	0.238701	0.951956	-0.22197	0.251346	0.273867	-0.170165	0.357592	0.136091	-0.0195652	-0.0172186	0.342247	-0.395533	0.119054	1.30659	-0.0640689	-0.200093	-0.0123247	-0.137787	0.302908	0.0154492	0.074169	-0.28943	0.0629847	0.62271	1.57245	0.181554	-0.207242	0.25164	0.569471	1.85696
0.27	0.0164794	-0.286459	0.0468849	0.249544	0.953714	-0.220958	0.232608	0.270299	-0.162553	0.348549	0.145657	-0.0148534	-0.0172716	0.369799	-0.378332	0.121627	1.31084	-0.0478946	-0.200447	-0.0123014	-0.1389	0.293584	0.0242217	0.0897548	-0.285179	0.0703148	0.623829	1.58662	0.171025	-0.204269	0.247179	0.558349	1.86182
0.28	0.0160375	-0.278391	0.0448808	0.260414	0.95552	-0.21997	0.212752	0.266131	-0.154593	0.337619	0.154392	-0.0100826	-0.0173247	0.395255	-0.361197	0.121693	1.3091	-0.0331265	-0.201113	-0.012278	-0.139615	0.283046	0.0327575	0.104444	-0.280221	0.0757421	0.626296	1.60117	0.160216	-0.201665	0.241834	0.547302	1.86693
0.29	0.0155385	-0.269896	0.0429701	0.271313	0.957331	-0.218995	0.192063	0.261521	-0.146576	0.324995	0.162396	-0.00505957	-0.0173778	0.418843	-0.344521	0.119552	1.30165	-0.0195595	-0.201654	-0.0122545	-0.139835	0.271544	0.0411666	0.118118	-0.274728	0.0793677	0.630327	1.61506	0.149254	-0.199508	0.235795	0.536501	1.87208
0.3	0.014843	-0.261186	0.0411341	0.282242	0.9591	-0.218025	0.170864	0.256612	-0.138806	0.310938	0.169779	0.000400853	-0.0174308	0.440814	-0.328635	0.115522	1.28878	-0.00706009	-0.201752	-0.012231	-0.139459	0.259324	0.0495241	0.130718	-0.2689	0.0814879	0.63602	1.62742	0.138252	-0.197868	0.229223	0.526094	1.87708
0.31	0.0138205	-0.25245	0.039367	0.293195	0.960781	-0.217054	0.149495	0.251529	-0.131565	0.295765	0.176664	0.00645612	-0.0174838	0.461402	-0.313797	0.109907	1.27079	0.00438305	-0.201268	-0.0122074	-0.138395	0.246616	0.0578729	0.142249	-0.262946	0.0825377	0.643375	1.63767	0.127303	-0.196796	0.222248	0.516198	1.88177
0.32	0.0123662	-0.243849	0.0376709	0.304166	0.962331	-0.216082	0.12828	0.246378	-0.125099	0.279832	0.183177	0.0132212	-0.0175368	0.480798	-0.300187	0.102982	1.24795	0.0146752	-0.200215	-0.0121837	-0.13658	0.233622	0.0662311	0.152763	-0.257073	0.0830179	0.652302	1.64557	0.116488	-0.196327	0.214983	0.506889	1.88604
0.33	0.0104161	-0.235509	0.036053	0.315147	0.963706	-0.215111	0.1075	0.241248	-0.119596	0.263516	0.189443	0.0207646	-0.0175898	0.499118	-0.287913	0.0949766	1.22049	0.023672	-0.198698	-0.0121599	-0.133997	0.220517	0.0746013	0.162353	-0.251468	0.0834197	0.662658	1.65117	0.105875	-0.196476	0.207525	0.498203	1.88986
0.34	0.00795629	-0.227524	0.0345233	0.326133	0.96488	-0.214144	0.0873728	0.236212	-0.115193	0.24719	0.195582	0.0291192	-0.0176428	0.516392	-0.277013	0.086071	1.18861	0.0312494	-0.196815	-0.012136	-0.130685	0.207438	0.0829786	0.171139	-0.246289	0.0841621	0.674265	1.6548	0.0955275	-0.197243	0.199965	0.49014	1.89324
0.35	0.00502547	-0.219959	0.0330942	0.337117	0.96583	-0.213188	0.0680395	0.231321	-0.11199	0.231201	0.201705	0.0383038	-0.0176957	0.532567	-0.26747	0.0763975	1.15244	0.0373629	-0.194559	-0.0121121	-0.126748	0.19449	0.091355	0.179256	-0.241655	0.0855506	0.686928	1.65694	0.0855103	-0.198612	0.192392	0.482672	1.8962
0.36	0.00170681	-0.212848	0.031781	0.348093	0.966542	-0.212248	0.0495651	0.22661	-0.110068	0.215855	0.20792	0.048352	-0.0177487	0.547516	-0.25922	0.0660464	1.11209	0.0420847	-0.191745	-0.0120881	-0.122334	0.181743	0.0997202	0.186843	-0.237645	0.0877617	0.700448	1.65815	0.0758919	-0.20055	0.184891	0.47575	1.89874
